<?xml version="1.0" encoding="utf-8"?>
<!-- Generator: Adobe Illustrator 23.0.4, SVG Export Plug-In . SVG Version: 6.00 Build 0)  -->
<svg version="1.1" id="Capa_1" xmlns="http://www.w3.org/2000/svg" xmlns:xlink="http://www.w3.org/1999/xlink" x="0px" y="0px"
	 viewBox="0 0 800 800" style="enable-background:new 0 0 800 800;" xml:space="preserve">
<style type="text/css">
	.st0{fill:#C1393D;}
	.st1{fill:#FFFFFF;}
</style>
<rect class="st0" width="800" height="800"/>
<g>
	<g>
		<path class="st1" d="M356.3,298.8c0,6.1,4.9,11,11,11v-22C361.2,287.8,356.3,292.7,356.3,298.8z"/>
		<path class="st1" d="M443.7,298.8c0-6.1-4.9-11-11-11v22C438.8,309.8,443.7,304.8,443.7,298.8z"/>
		<path class="st1" d="M529.1,227.5H270.9c-7.9,0-14.3,6.4-14.3,14.3v276.3c0,7.9,6.4,14.3,14.3,14.3h258.2
			c7.9,0,14.3-6.4,14.3-14.3V241.8C543.4,233.9,537,227.5,529.1,227.5z M356.3,506.8c0,3.1-2.6,5.7-5.7,5.7h-51.1
			c-3.2,0-5.7-2.6-5.7-5.7V484c0-3.2,2.6-5.7,5.7-5.7h51.1c3.2,0,5.7,2.6,5.7,5.7V506.8z M482.7,473.4h-18.5v-5.7h18.5V473.4z
			 M509.9,473.4h-18.5v-5.7h18.5V473.4z M526.3,459.2H273.7V285.6h97.6v64h19.4v11.6c0,1.7,0.5,3.2,1.2,4.6
			c-0.2,1.5-0.4,3.1-0.4,4.8c0,9.4,8.5,17.1,8.5,17.1s8.5-7.6,8.5-17.1c0-1.7-0.2-3.3-0.4-4.8c0.8-1.4,1.2-2.9,1.2-4.6v-11.6h19.4
			v-64h97.3L526.3,459.2L526.3,459.2z M526.3,276.9h-97.3v-16.1h-57.6v16.1h-97.6v-32.2h252.5V276.9z"/>
	</g>
</g>
</svg>
