<?xml version="1.0" encoding="utf-8"?>
<!-- Generator: Adobe Illustrator 23.0.3, SVG Export Plug-In . SVG Version: 6.00 Build 0)  -->
<svg version="1.1" id="Layer_1" xmlns="http://www.w3.org/2000/svg" xmlns:xlink="http://www.w3.org/1999/xlink" x="0px" y="0px"
	 viewBox="0 0 595.3 571.7" style="enable-background:new 0 0 595.3 571.7;" xml:space="preserve">
<style type="text/css">
	.st0{fill:#FFFFFF;}
	.st1{fill:#C1393D;}
</style>
<rect x="77.7" y="65.9" class="st0" width="439.9" height="439.9"/>
<path class="st1" d="M524.6,512.8c-151.3,0-302.6,0-454,0c0-151.3,0-302.6,0-454c151.3,0,302.6,0,454,0
	C524.6,210.2,524.6,361.5,524.6,512.8z M301.6,312.2c-0.2,0-0.4,0-0.7,0.1c-0.5-1.2-1-2.4-1.4-3.7c-14.1-40-28.3-80.1-42.4-120.1
	c-10.9-30.9-21.8-61.8-32.7-92.8c-0.5-1.5-1.2-1.9-2.8-1.9c-35.8,0-71.6,0-107.4,0c-0.7,0-1.5,0.1-2.2,0.1c0,111.7,0,223.3,0,334.8
	c24.6,0,49.1,0,74,0c0-85.6,0-171.1,0-256.6c0.7,0.5,1,1.2,1.2,1.8c9.2,28.1,18.5,56.1,27.7,84.2c9.4,28.6,18.8,57.1,28.2,85.7
	c9.2,27.8,18.4,55.7,27.5,83.5c0.4,1.2,0.9,1.7,2.2,1.7c17.7,0,35.4,0,53.1,0c1.4,0,2-0.5,2.4-1.8c1.5-4.7,3.1-9.3,4.7-13.9
	c10.1-29.4,20.1-58.9,30.2-88.3c10-29.1,19.9-58.2,29.9-87.3c7.2-21.2,14.5-42.3,21.7-63.5c0.2-0.7,0.6-1.4,0.9-2.1
	c0.2,0,0.4,0.1,0.6,0.1c0,85.5,0,171.1,0,256.6c24.9,0,49.3,0,73.8,0c0-111.7,0-223.2,0-334.9c-1.2,0-2.2,0-3.1,0
	c-35,0-69.9,0-104.9-0.1c-2.6,0-3.6,0.8-4.4,3.2c-10.9,31-21.9,62-32.9,92.9c-12.7,35.7-25.3,71.5-38,107.2
	C305.2,302.1,303.4,307.1,301.6,312.2z M112.1,458.4c0,9.5,0,18.6,0,27.9c126.2,0,252.2,0,378.4,0c0-9.4,0-18.5,0-27.9
	C364.3,458.4,238.3,458.4,112.1,458.4z"/>
</svg>
